G04 #@! TF.GenerationSoftware,KiCad,Pcbnew,8.0.8*
G04 #@! TF.CreationDate,2026-03-24T13:15:12-04:00*
G04 #@! TF.ProjectId,project-soic8-stemmaqt-mod,70726f6a-6563-4742-9d73-6f6963382d73,rev?*
G04 #@! TF.SameCoordinates,Original*
G04 #@! TF.FileFunction,Copper,L1,Top*
G04 #@! TF.FilePolarity,Positive*
%FSLAX46Y46*%
G04 Gerber Fmt 4.6, Leading zero omitted, Abs format (unit mm)*
G04 Created by KiCad (PCBNEW 8.0.8) date 2026-03-24 13:15:12*
%MOMM*%
%LPD*%
G01*
G04 APERTURE LIST*
G04 Aperture macros list*
%AMRoundRect*
0 Rectangle with rounded corners*
0 $1 Rounding radius*
0 $2 $3 $4 $5 $6 $7 $8 $9 X,Y pos of 4 corners*
0 Add a 4 corners polygon primitive as box body*
4,1,4,$2,$3,$4,$5,$6,$7,$8,$9,$2,$3,0*
0 Add four circle primitives for the rounded corners*
1,1,$1+$1,$2,$3*
1,1,$1+$1,$4,$5*
1,1,$1+$1,$6,$7*
1,1,$1+$1,$8,$9*
0 Add four rect primitives between the rounded corners*
20,1,$1+$1,$2,$3,$4,$5,0*
20,1,$1+$1,$4,$5,$6,$7,0*
20,1,$1+$1,$6,$7,$8,$9,0*
20,1,$1+$1,$8,$9,$2,$3,0*%
G04 Aperture macros list end*
G04 #@! TA.AperFunction,SMDPad,CuDef*
%ADD10R,1.550000X0.600000*%
G04 #@! TD*
G04 #@! TA.AperFunction,SMDPad,CuDef*
%ADD11R,1.800000X1.200000*%
G04 #@! TD*
G04 #@! TA.AperFunction,CastellatedPad*
%ADD12RoundRect,0.150000X0.150000X-0.650000X0.150000X0.650000X-0.150000X0.650000X-0.150000X-0.650000X0*%
G04 #@! TD*
G04 #@! TA.AperFunction,ViaPad*
%ADD13C,0.600000*%
G04 #@! TD*
G04 #@! TA.AperFunction,Conductor*
%ADD14C,0.250000*%
G04 #@! TD*
G04 APERTURE END LIST*
D10*
X31000000Y-24500000D03*
X31000000Y-23500000D03*
X31000000Y-22500000D03*
X31000000Y-21500000D03*
D11*
X34875000Y-25800000D03*
X34875000Y-20200000D03*
D12*
X24095000Y-25600000D03*
X25365000Y-25600000D03*
X26635000Y-25600000D03*
X27905000Y-25600000D03*
X27905000Y-20400000D03*
X26635000Y-20400000D03*
X25365000Y-20400000D03*
X24095000Y-20400000D03*
D13*
X34800000Y-21400000D03*
X32400000Y-24500000D03*
X34875000Y-24600000D03*
D14*
X34800000Y-21400000D02*
X34800000Y-20275000D01*
X34800000Y-20275000D02*
X34875000Y-20200000D01*
X34875000Y-24600000D02*
X34875000Y-25800000D01*
X31000000Y-24500000D02*
X32400000Y-24500000D01*
X28000000Y-19900000D02*
X29100000Y-19900000D01*
X27905000Y-19995000D02*
X28000000Y-19900000D01*
X30100000Y-22500000D02*
X31000000Y-22500000D01*
X29100000Y-19900000D02*
X29600000Y-20400000D01*
X29600000Y-20400000D02*
X29600000Y-22000000D01*
X29600000Y-22000000D02*
X30100000Y-22500000D01*
X27905000Y-20400000D02*
X27905000Y-19995000D01*
X26635000Y-20400000D02*
X26635000Y-19865000D01*
X29725000Y-19225000D02*
X31000000Y-20500000D01*
X26635000Y-19865000D02*
X27275000Y-19225000D01*
X27275000Y-19225000D02*
X29725000Y-19225000D01*
X31000000Y-20500000D02*
X31000000Y-21500000D01*
G04 #@! TA.AperFunction,Conductor*
G36*
X24390434Y-19070185D02*
G01*
X24411076Y-19086819D01*
X24415584Y-19091327D01*
X24432897Y-19113036D01*
X24513340Y-19241061D01*
X24525388Y-19266078D01*
X24575328Y-19408798D01*
X24581506Y-19435869D01*
X24599220Y-19593077D01*
X24600000Y-19606961D01*
X24600000Y-19741874D01*
X24598939Y-19758060D01*
X24579982Y-19902048D01*
X24571604Y-19933315D01*
X24519164Y-20059917D01*
X24502982Y-20087946D01*
X24492980Y-20100982D01*
X24436554Y-20142187D01*
X24394601Y-20149500D01*
X23344170Y-20149500D01*
X23300000Y-20149500D01*
X23240691Y-20149500D01*
X23126114Y-20180201D01*
X23126112Y-20180201D01*
X23126112Y-20180202D01*
X23023387Y-20239511D01*
X23023384Y-20239513D01*
X22939513Y-20323384D01*
X22939511Y-20323387D01*
X22880201Y-20426114D01*
X22849500Y-20540691D01*
X22849500Y-20550172D01*
X22849500Y-25355830D01*
X22849500Y-25400000D01*
X22849500Y-25459309D01*
X22880201Y-25573886D01*
X22939511Y-25676613D01*
X23023387Y-25760489D01*
X23126114Y-25819799D01*
X23240691Y-25850500D01*
X23250172Y-25850500D01*
X23420501Y-25850500D01*
X23487540Y-25870185D01*
X23533295Y-25922989D01*
X23544501Y-25974500D01*
X23544501Y-26281518D01*
X23559354Y-26375304D01*
X23616950Y-26488342D01*
X23616952Y-26488344D01*
X23616954Y-26488347D01*
X23706652Y-26578045D01*
X23706654Y-26578046D01*
X23706658Y-26578050D01*
X23800451Y-26625840D01*
X23819698Y-26635647D01*
X23913475Y-26650499D01*
X23913481Y-26650500D01*
X24276518Y-26650499D01*
X24370304Y-26635646D01*
X24483342Y-26578050D01*
X24573050Y-26488342D01*
X24619516Y-26397145D01*
X24667490Y-26346352D01*
X24735311Y-26329557D01*
X24801445Y-26352094D01*
X24840482Y-26397145D01*
X24886950Y-26488342D01*
X24886951Y-26488343D01*
X24886954Y-26488347D01*
X24976652Y-26578045D01*
X24976654Y-26578046D01*
X24976658Y-26578050D01*
X25070451Y-26625840D01*
X25089698Y-26635647D01*
X25183475Y-26650499D01*
X25183481Y-26650500D01*
X25546518Y-26650499D01*
X25640304Y-26635646D01*
X25753342Y-26578050D01*
X25843050Y-26488342D01*
X25889516Y-26397145D01*
X25937490Y-26346352D01*
X26005311Y-26329557D01*
X26071445Y-26352094D01*
X26110482Y-26397145D01*
X26156950Y-26488342D01*
X26156951Y-26488343D01*
X26156954Y-26488347D01*
X26246652Y-26578045D01*
X26246654Y-26578046D01*
X26246658Y-26578050D01*
X26340451Y-26625840D01*
X26359698Y-26635647D01*
X26453475Y-26650499D01*
X26453481Y-26650500D01*
X26816518Y-26650499D01*
X26910304Y-26635646D01*
X27023342Y-26578050D01*
X27113050Y-26488342D01*
X27159516Y-26397145D01*
X27207490Y-26346352D01*
X27275311Y-26329557D01*
X27341445Y-26352094D01*
X27380482Y-26397145D01*
X27426950Y-26488342D01*
X27426951Y-26488343D01*
X27426954Y-26488347D01*
X27516652Y-26578045D01*
X27516654Y-26578046D01*
X27516658Y-26578050D01*
X27610451Y-26625840D01*
X27629698Y-26635647D01*
X27723475Y-26650499D01*
X27723481Y-26650500D01*
X28086518Y-26650499D01*
X28180304Y-26635646D01*
X28293342Y-26578050D01*
X28383050Y-26488342D01*
X28440646Y-26375304D01*
X28440646Y-26375302D01*
X28440647Y-26375301D01*
X28455500Y-26281524D01*
X28455500Y-25974500D01*
X28475185Y-25907461D01*
X28527989Y-25861706D01*
X28579500Y-25850500D01*
X28859306Y-25850500D01*
X28859309Y-25850500D01*
X28973886Y-25819799D01*
X29076613Y-25760489D01*
X29160489Y-25676613D01*
X29219799Y-25573886D01*
X29250500Y-25459309D01*
X29250500Y-25400000D01*
X29250500Y-25355830D01*
X29250500Y-24175321D01*
X29974500Y-24175321D01*
X29974500Y-24824678D01*
X29989032Y-24897735D01*
X29989033Y-24897739D01*
X29989034Y-24897740D01*
X30044399Y-24980601D01*
X30127260Y-25035966D01*
X30127264Y-25035967D01*
X30200321Y-25050499D01*
X30200324Y-25050500D01*
X30200326Y-25050500D01*
X31799676Y-25050500D01*
X31799677Y-25050499D01*
X31872740Y-25035966D01*
X31955601Y-24980601D01*
X31955601Y-24980599D01*
X31965756Y-24973815D01*
X31967393Y-24976266D01*
X32012276Y-24951751D01*
X32081968Y-24956727D01*
X32114133Y-24974537D01*
X32122375Y-24980861D01*
X32256291Y-25036330D01*
X32383280Y-25053048D01*
X32399999Y-25055250D01*
X32400000Y-25055250D01*
X32400001Y-25055250D01*
X32414977Y-25053278D01*
X32543709Y-25036330D01*
X32677625Y-24980861D01*
X32792621Y-24892621D01*
X32880861Y-24777625D01*
X32936330Y-24643709D01*
X32955250Y-24500000D01*
X32936330Y-24356291D01*
X32880861Y-24222375D01*
X32792621Y-24107379D01*
X32677625Y-24019139D01*
X32677624Y-24019138D01*
X32677622Y-24019137D01*
X32543712Y-23963671D01*
X32543710Y-23963670D01*
X32543709Y-23963670D01*
X32471854Y-23954210D01*
X32400001Y-23944750D01*
X32399999Y-23944750D01*
X32256291Y-23963670D01*
X32256287Y-23963671D01*
X32122374Y-24019138D01*
X32122371Y-24019140D01*
X32114133Y-24025462D01*
X32048964Y-24050655D01*
X31980519Y-24036615D01*
X31965973Y-24025860D01*
X31965756Y-24026185D01*
X31955601Y-24019400D01*
X31955601Y-24019399D01*
X31872740Y-23964034D01*
X31872739Y-23964033D01*
X31872735Y-23964032D01*
X31799677Y-23949500D01*
X31799674Y-23949500D01*
X30200326Y-23949500D01*
X30200323Y-23949500D01*
X30127264Y-23964032D01*
X30127260Y-23964033D01*
X30044399Y-24019399D01*
X29989033Y-24102260D01*
X29989032Y-24102264D01*
X29974500Y-24175321D01*
X29250500Y-24175321D01*
X29250500Y-23488916D01*
X29270185Y-23421877D01*
X29278639Y-23410261D01*
X29285149Y-23402328D01*
X29302328Y-23385149D01*
X29434995Y-23276272D01*
X29455195Y-23262775D01*
X29606549Y-23181875D01*
X29628994Y-23172577D01*
X29793232Y-23122757D01*
X29817056Y-23118018D01*
X29993939Y-23100597D01*
X30006093Y-23100000D01*
X32993907Y-23100000D01*
X33006061Y-23100597D01*
X33182941Y-23118018D01*
X33206769Y-23122757D01*
X33371001Y-23172576D01*
X33393453Y-23181877D01*
X33544798Y-23262772D01*
X33565010Y-23276277D01*
X33697666Y-23385145D01*
X33714854Y-23402333D01*
X33823722Y-23534989D01*
X33837227Y-23555201D01*
X33918121Y-23706543D01*
X33927424Y-23729001D01*
X33977240Y-23893224D01*
X33981982Y-23917065D01*
X33999403Y-24093938D01*
X34000000Y-24106092D01*
X34000000Y-24837854D01*
X33980315Y-24904893D01*
X33927511Y-24950648D01*
X33900194Y-24959471D01*
X33877262Y-24964032D01*
X33877260Y-24964033D01*
X33794399Y-25019399D01*
X33739033Y-25102260D01*
X33739032Y-25102264D01*
X33724500Y-25175321D01*
X33724500Y-26424678D01*
X33739032Y-26497735D01*
X33739033Y-26497739D01*
X33739034Y-26497740D01*
X33794399Y-26580601D01*
X33797177Y-26582457D01*
X33801868Y-26588070D01*
X33803035Y-26589237D01*
X33802930Y-26589341D01*
X33841983Y-26636069D01*
X33850692Y-26705394D01*
X33837680Y-26743949D01*
X33837261Y-26744734D01*
X33823722Y-26765010D01*
X33714854Y-26897666D01*
X33697672Y-26914849D01*
X33689754Y-26921348D01*
X33625446Y-26948665D01*
X33611083Y-26949500D01*
X23006092Y-26949500D01*
X22993938Y-26948903D01*
X22865935Y-26936296D01*
X22842095Y-26931554D01*
X22724864Y-26895992D01*
X22702407Y-26886690D01*
X22594369Y-26828942D01*
X22574159Y-26815438D01*
X22479464Y-26737725D01*
X22462274Y-26720535D01*
X22449848Y-26705394D01*
X22384560Y-26625839D01*
X22371057Y-26605630D01*
X22313308Y-26497589D01*
X22304008Y-26475140D01*
X22268443Y-26357897D01*
X22263704Y-26334069D01*
X22251097Y-26206060D01*
X22250500Y-26193907D01*
X22250500Y-19806092D01*
X22251097Y-19793939D01*
X22252015Y-19784614D01*
X22263704Y-19665928D01*
X22268442Y-19642104D01*
X22304010Y-19524855D01*
X22313306Y-19502413D01*
X22371061Y-19394363D01*
X22384556Y-19374165D01*
X22462279Y-19279458D01*
X22479458Y-19262279D01*
X22574165Y-19184556D01*
X22594363Y-19171061D01*
X22702413Y-19113306D01*
X22724855Y-19104010D01*
X22842104Y-19068442D01*
X22865928Y-19063704D01*
X22984614Y-19052015D01*
X22993939Y-19051097D01*
X23006092Y-19050500D01*
X23044170Y-19050500D01*
X24323395Y-19050500D01*
X24390434Y-19070185D01*
G37*
G04 #@! TD.AperFunction*
M02*
