G04 #@! TF.GenerationSoftware,KiCad,Pcbnew,8.0.8*
G04 #@! TF.CreationDate,2026-03-24T13:15:12-04:00*
G04 #@! TF.ProjectId,project-soic8-stemmaqt-mod,70726f6a-6563-4742-9d73-6f6963382d73,rev?*
G04 #@! TF.SameCoordinates,Original*
G04 #@! TF.FileFunction,Legend,Bot*
G04 #@! TF.FilePolarity,Positive*
%FSLAX46Y46*%
G04 Gerber Fmt 4.6, Leading zero omitted, Abs format (unit mm)*
G04 Created by KiCad (PCBNEW 8.0.8) date 2026-03-24 13:15:12*
%MOMM*%
%LPD*%
G01*
G04 APERTURE LIST*
G04 Aperture macros list*
%AMRoundRect*
0 Rectangle with rounded corners*
0 $1 Rounding radius*
0 $2 $3 $4 $5 $6 $7 $8 $9 X,Y pos of 4 corners*
0 Add a 4 corners polygon primitive as box body*
4,1,4,$2,$3,$4,$5,$6,$7,$8,$9,$2,$3,0*
0 Add four circle primitives for the rounded corners*
1,1,$1+$1,$2,$3*
1,1,$1+$1,$4,$5*
1,1,$1+$1,$6,$7*
1,1,$1+$1,$8,$9*
0 Add four rect primitives between the rounded corners*
20,1,$1+$1,$2,$3,$4,$5,0*
20,1,$1+$1,$4,$5,$6,$7,0*
20,1,$1+$1,$6,$7,$8,$9,0*
20,1,$1+$1,$8,$9,$2,$3,0*%
G04 Aperture macros list end*
%ADD10C,0.160000*%
%ADD11RoundRect,0.150000X0.150000X-0.650000X0.150000X0.650000X-0.150000X0.650000X-0.150000X-0.650000X0*%
G04 APERTURE END LIST*
D10*
G36*
X35513224Y-20515000D02*
G01*
X35720097Y-20515000D01*
X35985833Y-19749054D01*
X35777739Y-19749054D01*
X35613119Y-20309347D01*
X35459734Y-19749054D01*
X35251639Y-19749054D01*
X35513224Y-20515000D01*
G37*
G36*
X34517445Y-19812557D02*
G01*
X34520952Y-19863390D01*
X34531470Y-19911170D01*
X34551140Y-19960202D01*
X34553349Y-19964476D01*
X34580284Y-20008588D01*
X34611721Y-20047564D01*
X34644207Y-20078538D01*
X34682167Y-20109437D01*
X34724368Y-20141236D01*
X34756559Y-20163778D01*
X34799206Y-20193935D01*
X34840686Y-20226152D01*
X34867690Y-20248775D01*
X34903445Y-20283671D01*
X34934132Y-20325078D01*
X34943649Y-20343053D01*
X34521598Y-20343053D01*
X34521598Y-20515000D01*
X35199616Y-20515000D01*
X35195508Y-20465609D01*
X35187048Y-20413022D01*
X35172543Y-20359564D01*
X35152877Y-20313188D01*
X35144173Y-20297623D01*
X35115001Y-20256850D01*
X35081486Y-20220397D01*
X35040515Y-20183219D01*
X34999462Y-20150776D01*
X34969050Y-20128852D01*
X34920529Y-20093993D01*
X34877851Y-20062081D01*
X34834351Y-20027674D01*
X34794236Y-19992894D01*
X34759490Y-19956660D01*
X34733765Y-19914807D01*
X34718718Y-19866489D01*
X34714305Y-19816953D01*
X34719560Y-19765033D01*
X34737113Y-19718940D01*
X34751674Y-19698496D01*
X34792865Y-19667466D01*
X34842834Y-19655645D01*
X34854989Y-19655265D01*
X34904961Y-19662762D01*
X34947596Y-19687606D01*
X34960013Y-19700694D01*
X34984050Y-19743332D01*
X34995362Y-19793209D01*
X34997138Y-19826967D01*
X34997138Y-19858475D01*
X35185450Y-19858475D01*
X35186915Y-19829654D01*
X35183875Y-19773466D01*
X35174756Y-19722138D01*
X35159558Y-19675669D01*
X35134143Y-19627599D01*
X35100453Y-19586144D01*
X35059354Y-19552169D01*
X35011709Y-19526538D01*
X34957520Y-19509253D01*
X34905862Y-19501078D01*
X34859141Y-19498949D01*
X34802366Y-19501937D01*
X34750194Y-19510902D01*
X34702623Y-19525843D01*
X34652942Y-19550827D01*
X34609525Y-19583946D01*
X34573646Y-19623937D01*
X34546580Y-19669538D01*
X34528326Y-19720748D01*
X34519693Y-19769109D01*
X34517445Y-19812557D01*
G37*
G36*
X34182833Y-20311789D02*
G01*
X34182833Y-20515000D01*
X34393859Y-20515000D01*
X34393859Y-20311789D01*
X34182833Y-20311789D01*
G37*
G36*
X33764872Y-19500132D02*
G01*
X33817827Y-19507360D01*
X33874210Y-19524708D01*
X33922779Y-19551519D01*
X33963534Y-19587792D01*
X33996475Y-19633527D01*
X34001224Y-19642053D01*
X34022705Y-19688133D01*
X34040417Y-19739960D01*
X34054361Y-19797536D01*
X34062803Y-19847736D01*
X34068832Y-19901614D01*
X34072450Y-19959171D01*
X34073656Y-20020408D01*
X34072920Y-20070283D01*
X34070275Y-20124077D01*
X34065707Y-20174452D01*
X34058269Y-20227037D01*
X34055149Y-20243670D01*
X34043523Y-20292021D01*
X34026617Y-20343026D01*
X34005512Y-20391168D01*
X34000718Y-20400376D01*
X33973055Y-20442379D01*
X33939238Y-20477656D01*
X33899267Y-20506207D01*
X33881510Y-20515595D01*
X33832942Y-20533589D01*
X33784134Y-20543094D01*
X33730495Y-20546263D01*
X33712031Y-20545911D01*
X33659832Y-20540630D01*
X33607454Y-20527330D01*
X33560990Y-20506207D01*
X33552389Y-20501032D01*
X33513306Y-20471036D01*
X33480758Y-20434170D01*
X33454745Y-20390436D01*
X33448062Y-20376175D01*
X33428485Y-20327060D01*
X33413057Y-20275511D01*
X33402721Y-20227037D01*
X33395882Y-20181410D01*
X33390997Y-20132698D01*
X33388066Y-20080904D01*
X33387090Y-20026025D01*
X33387099Y-20021873D01*
X33583949Y-20021873D01*
X33584024Y-20039283D01*
X33585140Y-20088674D01*
X33588135Y-20140913D01*
X33593791Y-20193517D01*
X33603000Y-20243646D01*
X33606671Y-20258227D01*
X33623329Y-20306851D01*
X33652337Y-20349159D01*
X33682204Y-20366356D01*
X33730495Y-20374316D01*
X33764670Y-20370675D01*
X33809874Y-20348426D01*
X33820810Y-20336802D01*
X33844470Y-20290989D01*
X33858478Y-20242180D01*
X33860696Y-20231863D01*
X33868907Y-20179437D01*
X33873773Y-20124597D01*
X33876152Y-20070250D01*
X33876796Y-20018942D01*
X33876764Y-20006213D01*
X33875611Y-19946279D01*
X33872814Y-19892535D01*
X33867284Y-19836212D01*
X33857837Y-19781767D01*
X33843091Y-19734399D01*
X33820459Y-19696146D01*
X33779283Y-19664616D01*
X33730495Y-19655265D01*
X33688978Y-19663255D01*
X33648037Y-19693938D01*
X33621318Y-19737086D01*
X33610553Y-19765613D01*
X33598547Y-19815488D01*
X33591102Y-19867466D01*
X33586905Y-19917288D01*
X33584533Y-19973025D01*
X33583949Y-20021873D01*
X33387099Y-20021873D01*
X33387106Y-20018302D01*
X33388112Y-19965987D01*
X33390685Y-19916735D01*
X33395543Y-19864196D01*
X33403454Y-19809870D01*
X33406669Y-19792779D01*
X33418635Y-19743593D01*
X33436009Y-19692612D01*
X33457676Y-19645495D01*
X33484318Y-19603640D01*
X33520512Y-19565643D01*
X33563921Y-19536074D01*
X33581431Y-19527373D01*
X33629344Y-19510696D01*
X33677524Y-19501886D01*
X33730495Y-19498949D01*
X33764872Y-19500132D01*
G37*
G36*
X33055408Y-20311789D02*
G01*
X33055408Y-20515000D01*
X33266434Y-20515000D01*
X33266434Y-20311789D01*
X33055408Y-20311789D01*
G37*
G36*
X32637447Y-19500132D02*
G01*
X32690402Y-19507360D01*
X32746785Y-19524708D01*
X32795354Y-19551519D01*
X32836109Y-19587792D01*
X32869050Y-19633527D01*
X32873799Y-19642053D01*
X32895280Y-19688133D01*
X32912992Y-19739960D01*
X32926936Y-19797536D01*
X32935378Y-19847736D01*
X32941407Y-19901614D01*
X32945025Y-19959171D01*
X32946231Y-20020408D01*
X32945495Y-20070283D01*
X32942850Y-20124077D01*
X32938282Y-20174452D01*
X32930844Y-20227037D01*
X32927724Y-20243670D01*
X32916098Y-20292021D01*
X32899192Y-20343026D01*
X32878087Y-20391168D01*
X32873293Y-20400376D01*
X32845630Y-20442379D01*
X32811813Y-20477656D01*
X32771842Y-20506207D01*
X32754085Y-20515595D01*
X32705517Y-20533589D01*
X32656709Y-20543094D01*
X32603070Y-20546263D01*
X32584606Y-20545911D01*
X32532407Y-20540630D01*
X32480029Y-20527330D01*
X32433565Y-20506207D01*
X32424964Y-20501032D01*
X32385881Y-20471036D01*
X32353333Y-20434170D01*
X32327320Y-20390436D01*
X32320637Y-20376175D01*
X32301060Y-20327060D01*
X32285632Y-20275511D01*
X32275296Y-20227037D01*
X32268457Y-20181410D01*
X32263572Y-20132698D01*
X32260642Y-20080904D01*
X32259665Y-20026025D01*
X32259674Y-20021873D01*
X32456524Y-20021873D01*
X32456599Y-20039283D01*
X32457715Y-20088674D01*
X32460710Y-20140913D01*
X32466366Y-20193517D01*
X32475575Y-20243646D01*
X32479246Y-20258227D01*
X32495904Y-20306851D01*
X32524912Y-20349159D01*
X32554779Y-20366356D01*
X32603070Y-20374316D01*
X32637245Y-20370675D01*
X32682449Y-20348426D01*
X32693385Y-20336802D01*
X32717045Y-20290989D01*
X32731053Y-20242180D01*
X32733271Y-20231863D01*
X32741482Y-20179437D01*
X32746348Y-20124597D01*
X32748727Y-20070250D01*
X32749371Y-20018942D01*
X32749339Y-20006213D01*
X32748186Y-19946279D01*
X32745389Y-19892535D01*
X32739859Y-19836212D01*
X32730412Y-19781767D01*
X32715666Y-19734399D01*
X32693034Y-19696146D01*
X32651858Y-19664616D01*
X32603070Y-19655265D01*
X32561553Y-19663255D01*
X32520612Y-19693938D01*
X32493893Y-19737086D01*
X32483128Y-19765613D01*
X32471122Y-19815488D01*
X32463677Y-19867466D01*
X32459480Y-19917288D01*
X32457108Y-19973025D01*
X32456524Y-20021873D01*
X32259674Y-20021873D01*
X32259681Y-20018302D01*
X32260687Y-19965987D01*
X32263260Y-19916735D01*
X32268118Y-19864196D01*
X32276029Y-19809870D01*
X32279245Y-19792779D01*
X32291210Y-19743593D01*
X32308584Y-19692612D01*
X32330251Y-19645495D01*
X32356893Y-19603640D01*
X32393087Y-19565643D01*
X32436496Y-19536074D01*
X32454006Y-19527373D01*
X32501919Y-19510696D01*
X32550099Y-19501886D01*
X32603070Y-19498949D01*
X32637447Y-19500132D01*
G37*
%LPC*%
D11*
X24095000Y-25600000D03*
X25365000Y-25600000D03*
X26635000Y-25600000D03*
X27905000Y-25600000D03*
X27905000Y-20400000D03*
X26635000Y-20400000D03*
X25365000Y-20400000D03*
X24095000Y-20400000D03*
%LPD*%
M02*
