G04 #@! TF.GenerationSoftware,KiCad,Pcbnew,8.0.8*
G04 #@! TF.CreationDate,2026-03-24T13:15:12-04:00*
G04 #@! TF.ProjectId,project-soic8-stemmaqt-mod,70726f6a-6563-4742-9d73-6f6963382d73,rev?*
G04 #@! TF.SameCoordinates,Original*
G04 #@! TF.FileFunction,Copper,L2,Bot*
G04 #@! TF.FilePolarity,Positive*
%FSLAX46Y46*%
G04 Gerber Fmt 4.6, Leading zero omitted, Abs format (unit mm)*
G04 Created by KiCad (PCBNEW 8.0.8) date 2026-03-24 13:15:12*
%MOMM*%
%LPD*%
G01*
G04 APERTURE LIST*
G04 Aperture macros list*
%AMRoundRect*
0 Rectangle with rounded corners*
0 $1 Rounding radius*
0 $2 $3 $4 $5 $6 $7 $8 $9 X,Y pos of 4 corners*
0 Add a 4 corners polygon primitive as box body*
4,1,4,$2,$3,$4,$5,$6,$7,$8,$9,$2,$3,0*
0 Add four circle primitives for the rounded corners*
1,1,$1+$1,$2,$3*
1,1,$1+$1,$4,$5*
1,1,$1+$1,$6,$7*
1,1,$1+$1,$8,$9*
0 Add four rect primitives between the rounded corners*
20,1,$1+$1,$2,$3,$4,$5,0*
20,1,$1+$1,$4,$5,$6,$7,0*
20,1,$1+$1,$6,$7,$8,$9,0*
20,1,$1+$1,$8,$9,$2,$3,0*%
G04 Aperture macros list end*
G04 #@! TA.AperFunction,CastellatedPad*
%ADD10RoundRect,0.150000X0.150000X-0.650000X0.150000X0.650000X-0.150000X0.650000X-0.150000X-0.650000X0*%
G04 #@! TD*
G04 #@! TA.AperFunction,ViaPad*
%ADD11C,0.600000*%
G04 #@! TD*
G04 APERTURE END LIST*
D10*
X24095000Y-25600000D03*
X25365000Y-25600000D03*
X26635000Y-25600000D03*
X27905000Y-25600000D03*
X27905000Y-20400000D03*
X26635000Y-20400000D03*
X25365000Y-20400000D03*
X24095000Y-20400000D03*
D11*
X34800000Y-21400000D03*
X32400000Y-24500000D03*
X34875000Y-24600000D03*
G04 #@! TA.AperFunction,Conductor*
G36*
X35506061Y-19051097D02*
G01*
X35516635Y-19052138D01*
X35634069Y-19063704D01*
X35657897Y-19068443D01*
X35775140Y-19104008D01*
X35797589Y-19113308D01*
X35856123Y-19144595D01*
X35905630Y-19171057D01*
X35925840Y-19184561D01*
X36020535Y-19262274D01*
X36037725Y-19279464D01*
X36115438Y-19374159D01*
X36128942Y-19394369D01*
X36186690Y-19502407D01*
X36195992Y-19524864D01*
X36226276Y-19624696D01*
X36231554Y-19642093D01*
X36236296Y-19665935D01*
X36248903Y-19793938D01*
X36249500Y-19806092D01*
X36249500Y-26193907D01*
X36248903Y-26206061D01*
X36236296Y-26334064D01*
X36231554Y-26357906D01*
X36195993Y-26475134D01*
X36186690Y-26497592D01*
X36128942Y-26605630D01*
X36115438Y-26625840D01*
X36037725Y-26720535D01*
X36020535Y-26737725D01*
X35925840Y-26815438D01*
X35905630Y-26828942D01*
X35797592Y-26886690D01*
X35775134Y-26895993D01*
X35657906Y-26931554D01*
X35634064Y-26936296D01*
X35506062Y-26948903D01*
X35493908Y-26949500D01*
X23006092Y-26949500D01*
X22993938Y-26948903D01*
X22865935Y-26936296D01*
X22842095Y-26931554D01*
X22724864Y-26895992D01*
X22702407Y-26886690D01*
X22594369Y-26828942D01*
X22574159Y-26815438D01*
X22479464Y-26737725D01*
X22462274Y-26720535D01*
X22392608Y-26635646D01*
X22384560Y-26625839D01*
X22371057Y-26605630D01*
X22356314Y-26578048D01*
X22313308Y-26497589D01*
X22304008Y-26475140D01*
X22268443Y-26357897D01*
X22263704Y-26334069D01*
X22251097Y-26206060D01*
X22250500Y-26193907D01*
X22250500Y-20540691D01*
X22849500Y-20540691D01*
X22849500Y-20550172D01*
X22849500Y-25355830D01*
X22849500Y-25400000D01*
X22849500Y-25459309D01*
X22880201Y-25573886D01*
X22939511Y-25676613D01*
X23023387Y-25760489D01*
X23126114Y-25819799D01*
X23240691Y-25850500D01*
X23250172Y-25850500D01*
X23420501Y-25850500D01*
X23487540Y-25870185D01*
X23533295Y-25922989D01*
X23544501Y-25974500D01*
X23544501Y-26281518D01*
X23559354Y-26375304D01*
X23616950Y-26488342D01*
X23616952Y-26488344D01*
X23616954Y-26488347D01*
X23706652Y-26578045D01*
X23706654Y-26578046D01*
X23706658Y-26578050D01*
X23800451Y-26625840D01*
X23819698Y-26635647D01*
X23913475Y-26650499D01*
X23913481Y-26650500D01*
X24276518Y-26650499D01*
X24370304Y-26635646D01*
X24483342Y-26578050D01*
X24573050Y-26488342D01*
X24619516Y-26397145D01*
X24667490Y-26346352D01*
X24735311Y-26329557D01*
X24801445Y-26352094D01*
X24840482Y-26397145D01*
X24886950Y-26488342D01*
X24886951Y-26488343D01*
X24886954Y-26488347D01*
X24976652Y-26578045D01*
X24976654Y-26578046D01*
X24976658Y-26578050D01*
X25070451Y-26625840D01*
X25089698Y-26635647D01*
X25183475Y-26650499D01*
X25183481Y-26650500D01*
X25546518Y-26650499D01*
X25640304Y-26635646D01*
X25753342Y-26578050D01*
X25843050Y-26488342D01*
X25889516Y-26397145D01*
X25937490Y-26346352D01*
X26005311Y-26329557D01*
X26071445Y-26352094D01*
X26110482Y-26397145D01*
X26156950Y-26488342D01*
X26156951Y-26488343D01*
X26156954Y-26488347D01*
X26246652Y-26578045D01*
X26246654Y-26578046D01*
X26246658Y-26578050D01*
X26340451Y-26625840D01*
X26359698Y-26635647D01*
X26453475Y-26650499D01*
X26453481Y-26650500D01*
X26816518Y-26650499D01*
X26910304Y-26635646D01*
X27023342Y-26578050D01*
X27113050Y-26488342D01*
X27170646Y-26375304D01*
X27170646Y-26375302D01*
X27170647Y-26375301D01*
X27185500Y-26281524D01*
X27185500Y-25974500D01*
X27205185Y-25907461D01*
X27257989Y-25861706D01*
X27309500Y-25850500D01*
X28859306Y-25850500D01*
X28859309Y-25850500D01*
X28973886Y-25819799D01*
X29076613Y-25760489D01*
X29160489Y-25676613D01*
X29219799Y-25573886D01*
X29250500Y-25459309D01*
X29250500Y-25400000D01*
X29250500Y-25355830D01*
X29250500Y-20550172D01*
X29250500Y-20540691D01*
X29219799Y-20426114D01*
X29160489Y-20323387D01*
X29076613Y-20239511D01*
X28973886Y-20180201D01*
X28859309Y-20149500D01*
X28859306Y-20149500D01*
X28579499Y-20149500D01*
X28512460Y-20129815D01*
X28466705Y-20077011D01*
X28455499Y-20025500D01*
X28455499Y-19718482D01*
X28455498Y-19718475D01*
X28440646Y-19624696D01*
X28383050Y-19511658D01*
X28383046Y-19511654D01*
X28383045Y-19511652D01*
X28293347Y-19421954D01*
X28293344Y-19421952D01*
X28293342Y-19421950D01*
X28216517Y-19382805D01*
X28180301Y-19364352D01*
X28086524Y-19349500D01*
X27723482Y-19349500D01*
X27642519Y-19362323D01*
X27629696Y-19364354D01*
X27516658Y-19421950D01*
X27516657Y-19421951D01*
X27516652Y-19421954D01*
X27426954Y-19511652D01*
X27426949Y-19511659D01*
X27380483Y-19602852D01*
X27332508Y-19653648D01*
X27264687Y-19670442D01*
X27198552Y-19647904D01*
X27159516Y-19602852D01*
X27113050Y-19511658D01*
X27113047Y-19511655D01*
X27113045Y-19511652D01*
X27023347Y-19421954D01*
X27023344Y-19421952D01*
X27023342Y-19421950D01*
X26946517Y-19382805D01*
X26910301Y-19364352D01*
X26816524Y-19349500D01*
X26453482Y-19349500D01*
X26372519Y-19362323D01*
X26359696Y-19364354D01*
X26246658Y-19421950D01*
X26246657Y-19421951D01*
X26246652Y-19421954D01*
X26156954Y-19511652D01*
X26156949Y-19511659D01*
X26110483Y-19602852D01*
X26062508Y-19653648D01*
X25994687Y-19670442D01*
X25928552Y-19647904D01*
X25889516Y-19602852D01*
X25843050Y-19511658D01*
X25843047Y-19511655D01*
X25843045Y-19511652D01*
X25753347Y-19421954D01*
X25753344Y-19421952D01*
X25753342Y-19421950D01*
X25676517Y-19382805D01*
X25640301Y-19364352D01*
X25546524Y-19349500D01*
X25183482Y-19349500D01*
X25102519Y-19362323D01*
X25089696Y-19364354D01*
X24976658Y-19421950D01*
X24976657Y-19421951D01*
X24976652Y-19421954D01*
X24886954Y-19511652D01*
X24886949Y-19511659D01*
X24840483Y-19602852D01*
X24792508Y-19653648D01*
X24724687Y-19670442D01*
X24658552Y-19647904D01*
X24619516Y-19602852D01*
X24573050Y-19511658D01*
X24573047Y-19511655D01*
X24573045Y-19511652D01*
X24483347Y-19421954D01*
X24483344Y-19421952D01*
X24483342Y-19421950D01*
X24406517Y-19382805D01*
X24370301Y-19364352D01*
X24276524Y-19349500D01*
X23913482Y-19349500D01*
X23832519Y-19362323D01*
X23819696Y-19364354D01*
X23706658Y-19421950D01*
X23706657Y-19421951D01*
X23706652Y-19421954D01*
X23616954Y-19511652D01*
X23616951Y-19511657D01*
X23616950Y-19511658D01*
X23616175Y-19513179D01*
X23559352Y-19624698D01*
X23544500Y-19718475D01*
X23544500Y-20025500D01*
X23524815Y-20092539D01*
X23472011Y-20138294D01*
X23420500Y-20149500D01*
X23344170Y-20149500D01*
X23300000Y-20149500D01*
X23240691Y-20149500D01*
X23126114Y-20180201D01*
X23126112Y-20180201D01*
X23126112Y-20180202D01*
X23023387Y-20239511D01*
X23023384Y-20239513D01*
X22939513Y-20323384D01*
X22939511Y-20323387D01*
X22880201Y-20426114D01*
X22849500Y-20540691D01*
X22250500Y-20540691D01*
X22250500Y-19806092D01*
X22251097Y-19793939D01*
X22255407Y-19750172D01*
X22263704Y-19665928D01*
X22268442Y-19642104D01*
X22304010Y-19524855D01*
X22313306Y-19502413D01*
X22371061Y-19394363D01*
X22384556Y-19374165D01*
X22462279Y-19279458D01*
X22479458Y-19262279D01*
X22574165Y-19184556D01*
X22594363Y-19171061D01*
X22702413Y-19113306D01*
X22724855Y-19104010D01*
X22842104Y-19068442D01*
X22865928Y-19063704D01*
X22984614Y-19052015D01*
X22993939Y-19051097D01*
X23006092Y-19050500D01*
X23044170Y-19050500D01*
X35455830Y-19050500D01*
X35493908Y-19050500D01*
X35506061Y-19051097D01*
G37*
G04 #@! TD.AperFunction*
M02*
